<svg width="144" height="46" viewBox="0 0 144 46" fill="none" xmlns="http://www.w3.org/2000/svg">
<path d="M111 13C121.89 13 132.78 13 144 13C144 19.6 144 26.2 144 33C136.41 33.33 128.82 33.66 121 34C120.67 34.66 120.34 35.32 120 36C121.037 36.0376 121.037 36.0376 122.095 36.0759C125.21 36.1915 128.324 36.3144 131.438 36.4375C132.526 36.4768 133.615 36.5161 134.736 36.5566C135.771 36.5985 136.805 36.6404 137.871 36.6836C138.829 36.7203 139.788 36.7569 140.775 36.7947C143 37 143 37 144 38C144 40.31 144 42.62 144 45C133.11 45 122.22 45 111 45C111 34.44 111 23.88 111 13ZM119 22C119.33 22.99 119.66 23.98 120 25C125.28 25 130.56 25 136 25C136 23.68 136 22.36 136 21C133.542 20.9731 131.083 20.9532 128.625 20.9375C127.577 20.9249 127.577 20.9249 126.508 20.9121C122.627 20.8165 122.627 20.8165 119 22Z" fill="#E4E5E5"/>
<path d="M74 0C76.31 0 78.62 0 81 0C84.0732 3.07318 82 8.65386 82 13C89.92 13 97.84 13 106 13C107.461 15.922 107.111 18.4989 107.098 21.7578C107.095 22.971 107.093 24.1842 107.09 25.4341C107.081 26.9821 107.072 28.5301 107.062 30.125C107.042 35.0338 107.021 39.9425 107 45C90.665 45.495 90.665 45.495 74 46C74 30.82 74 15.64 74 0ZM82 21C82 26.28 82 31.56 82 37C84.6194 37.0206 87.2387 37.0412 89.9375 37.0625C91.1768 37.0762 91.1768 37.0762 92.4412 37.0901C94.2943 37.0972 96.1475 37.0503 98 37C99.3916 35.8372 99.3916 35.8372 99.0977 32.6211C99.0919 31.2265 99.0789 29.832 99.0625 28.4375C99.0316 24.7559 99.0316 24.7559 99 21C93.39 21 87.78 21 82 21Z" fill="#E2E2E2"/>
<path d="M0 13C5.25938 12.9794 10.5188 12.9588 15.9375 12.9375C17.599 12.9284 19.2605 12.9193 20.9724 12.9099C22.2693 12.9074 23.5662 12.9049 24.9023 12.9023C25.9311 12.8947 25.9311 12.8947 26.9806 12.8868C28.6542 12.8865 30.3276 12.9378 32 13C33 14 33 14 33.125 17C33 20 33 20 32 21C30.2193 21.0873 28.4352 21.107 26.6523 21.0977C25.5728 21.0944 24.4932 21.0912 23.3809 21.0879C22.2446 21.0795 21.1082 21.0711 19.9375 21.0625C18.7973 21.058 17.6571 21.0535 16.4824 21.0488C13.6549 21.037 10.8275 21.0191 8 21C8 26.28 8 31.56 8 37C10.4557 36.9826 10.4557 36.9826 12.9609 36.9648C15.099 36.9555 17.237 36.9464 19.375 36.9375C20.4552 36.9291 21.5355 36.9207 22.6484 36.9121C24.1953 36.9073 24.1953 36.9073 25.7734 36.9023C26.7265 36.8971 27.6796 36.8919 28.6616 36.8865C31 37 31 37 33 38C33 40.31 33 42.62 33 45C22.11 45 11.22 45 0 45C0 34.44 0 23.88 0 13Z" fill="#DDDDDD"/>
<path d="M37 13C39.3329 12.9576 41.667 12.9591 44 13C45 14 45 14 45.1135 16.0413C45.1083 16.9158 45.103 17.7904 45.0976 18.6914C45.0944 19.6357 45.0912 20.5799 45.0879 21.5527C45.0795 22.546 45.0711 23.5392 45.0625 24.5625C45.058 25.5596 45.0534 26.5567 45.0488 27.584C45.037 30.0561 45.0205 32.528 45 35C45.66 35 46.32 35 47 35C47 35.66 47 36.32 47 37C51.62 37 56.24 37 61 37C61 29.08 61 21.16 61 13C63.64 13 66.28 13 69 13C69 23.56 69 34.12 69 45C63.029 45.2166 63.029 45.2166 56.9375 45.4375C55.0753 45.5331 55.0753 45.5331 53.1755 45.6306C47.9742 45.7218 43.8568 45.685 39.7187 42.2813C35.5412 37.2024 36.2393 31.3093 36.5625 25.0625C36.594 23.9017 36.6256 22.7409 36.6582 21.5449C36.7403 18.694 36.8551 15.8483 37 13Z" fill="#D8D8D8"/>
</svg>
